<?xml version="1.0" standalone="no"?>
<!DOCTYPE svg PUBLIC "-//W3C//DTD SVG 20010904//EN"
 "http://www.w3.org/TR/2001/REC-SVG-20010904/DTD/svg10.dtd">
<svg version="1.0" xmlns="http://www.w3.org/2000/svg"
 width="1118.000000pt" height="1118.000000pt" viewBox="0 0 1118.000000 1118.000000"
 preserveAspectRatio="xMidYMid meet">
<metadata>
Created by potrace 1.14, written by Peter Selinger 2001-2017
</metadata>
<g transform="translate(0.000000,1118.000000) scale(0.100000,-0.100000)"
fill="#000000" stroke="none">
<path d="M5487 10304 c-1 -1 -72 -5 -158 -8 -85 -4 -166 -8 -180 -10 -13 -3
-61 -7 -106 -11 -46 -3 -91 -8 -100 -9 -10 -2 -45 -7 -78 -10 -33 -4 -71 -9
-85 -11 -14 -2 -69 -11 -123 -20 -79 -13 -249 -47 -347 -70 -87 -20 -275 -69
-310 -82 -25 -8 -52 -16 -61 -18 -9 -2 -69 -21 -135 -43 -829 -279 -1586 -754
-2200 -1382 -141 -144 -192 -200 -310 -340 -120 -143 -270 -347 -386 -525 -58
-88 -108 -167 -111 -175 -4 -8 -16 -28 -26 -45 -72 -116 -202 -367 -286 -555
-140 -311 -291 -767 -349 -1053 -2 -7 -6 -30 -11 -52 -4 -22 -9 -49 -12 -60
-9 -45 -34 -182 -39 -215 -2 -19 -7 -46 -9 -60 -3 -14 -7 -47 -11 -75 -3 -27
-7 -60 -9 -73 -2 -13 -7 -53 -10 -90 -4 -37 -8 -78 -10 -91 -24 -149 -24 -778
0 -1001 2 -19 6 -62 10 -95 10 -104 16 -148 25 -205 6 -30 12 -73 15 -95 3
-22 7 -51 10 -65 6 -28 26 -139 29 -156 6 -40 62 -58 86 -29 12 14 10 77 -5
200 -24 197 -24 766 0 968 2 15 6 60 10 100 4 40 9 81 11 92 2 11 6 43 9 70 4
28 8 62 11 78 2 15 6 42 9 60 3 17 10 55 15 82 5 28 12 65 15 84 10 60 73 322
104 431 63 223 174 530 255 703 20 43 36 80 36 82 0 14 162 326 222 428 15 26
28 50 28 53 0 3 11 20 25 38 14 18 25 36 25 40 0 13 202 311 293 431 151 200
292 360 492 560 104 105 208 206 230 225 118 102 171 146 251 210 49 38 94 73
99 77 117 94 431 299 570 373 33 18 67 38 75 45 28 23 385 194 540 258 138 57
370 143 410 152 8 2 51 15 95 28 87 28 156 47 194 54 14 2 28 6 31 8 7 4 169
42 220 51 14 3 41 9 60 14 20 5 51 12 70 14 19 2 76 11 125 20 50 8 115 18
145 21 30 4 66 8 80 10 50 7 167 18 335 30 66 5 550 6 595 1 19 -2 78 -7 130
-10 102 -7 142 -11 260 -26 42 -6 94 -13 115 -15 22 -3 63 -9 90 -15 28 -5 66
-11 85 -14 19 -3 80 -15 135 -27 55 -11 109 -23 119 -25 11 -2 94 -24 185 -48
519 -140 1019 -360 1486 -655 112 -70 256 -168 316 -216 15 -11 39 -29 54 -40
269 -193 666 -574 914 -880 45 -55 90 -110 101 -123 56 -67 246 -343 348 -507
153 -247 325 -599 434 -890 33 -86 97 -271 103 -295 2 -8 20 -69 39 -135 30
-103 94 -370 110 -458 3 -15 10 -55 16 -90 7 -34 14 -75 16 -90 2 -15 6 -47
10 -70 9 -61 12 -85 19 -157 3 -36 8 -76 10 -90 14 -82 24 -318 24 -530 0
-223 -6 -362 -25 -545 -3 -27 -6 -63 -8 -80 -4 -40 13 -65 45 -65 38 0 51 23
65 110 1 8 13 87 27 175 14 88 29 189 32 225 4 36 8 76 10 90 4 28 16 180 21
280 4 86 4 481 0 545 -2 28 -7 95 -11 150 -3 55 -8 111 -10 125 -2 14 -7 57
-10 95 -4 39 -8 77 -10 85 -2 8 -7 38 -10 65 -18 150 -68 396 -121 602 -339
1313 -1144 2455 -2274 3225 -524 357 -1114 623 -1735 783 -93 24 -181 46 -195
49 -14 2 -45 9 -70 15 -25 5 -67 13 -95 17 -27 3 -53 8 -56 10 -8 5 -220 36
-329 49 -153 17 -230 24 -385 31 -128 6 -364 11 -368 8z"/>
<path d="M5020 8952 c-29 -14 -182 -130 -359 -270 -19 -15 -39 -30 -44 -34
-10 -6 109 -176 123 -178 3 0 51 36 108 80 75 59 102 75 103 62 0 -9 0 -153 0
-319 0 -225 3 -302 12 -305 10 -4 192 -3 207 1 3 0 4 203 4 450 -2 442 -2 451
-23 480 -12 16 -32 33 -44 36 -12 4 -29 8 -37 11 -9 2 -31 -4 -50 -14z"/>
<path d="M5600 8831 l0 -111 385 0 c322 0 391 -2 415 -15 50 -26 51 -79 4
-110 -23 -15 -63 -17 -303 -20 -152 -1 -287 -5 -300 -8 -84 -22 -165 -88 -203
-167 -18 -37 -23 -67 -25 -160 -3 -103 -1 -120 19 -160 15 -30 36 -52 63 -67
40 -22 44 -22 508 -23 370 0 467 2 468 12 0 18 0 181 0 195 -1 9 -95 12 -373
12 -205 0 -390 0 -411 1 -46 0 -61 28 -46 84 17 61 30 64 349 68 l285 3 55 27
c63 31 124 86 145 132 69 150 8 311 -147 382 l-63 29 -412 3 -413 3 0 -110z"/>
<path d="M8055 8159 c-62 -11 -161 -47 -235 -84 -73 -37 -251 -154 -314 -207
-22 -18 -60 -50 -85 -71 -64 -54 -265 -252 -315 -311 -22 -26 -54 -62 -69 -80
-61 -69 -221 -288 -299 -411 -130 -204 -317 -573 -443 -870 -37 -88 -73 -173
-80 -190 -51 -119 -194 -511 -265 -725 -37 -111 -142 -444 -153 -485 -3 -11
-12 -42 -21 -70 -19 -65 -76 -266 -80 -285 -9 -38 -29 -111 -47 -175 l-21 -70
-38 3 c-36 4 -43 10 -82 71 -24 36 -46 68 -50 69 -5 2 -8 7 -8 12 0 8 -78 130
-89 140 -3 3 -12 17 -20 33 -8 15 -18 27 -23 27 -4 0 -8 5 -8 10 0 12 -141
223 -152 228 -5 2 -8 8 -8 13 0 5 -46 76 -102 159 -57 83 -107 158 -113 167
-5 10 -14 23 -20 29 -5 7 -39 55 -75 108 -138 205 -369 530 -457 643 -152 195
-344 404 -493 533 -34 30 -68 60 -74 65 -6 6 -38 31 -71 56 -207 157 -374 217
-483 174 -54 -22 -100 -91 -118 -174 -40 -196 -38 -394 7 -626 98 -500 357
-938 719 -1215 181 -138 425 -260 740 -368 104 -36 313 -98 358 -107 10 -2 43
-10 73 -19 30 -9 54 -16 54 -15 0 0 28 -5 63 -12 34 -7 62 -15 62 -19 0 -3
-21 -6 -48 -8 -51 -3 -269 -37 -342 -53 -25 -6 -56 -13 -70 -15 -126 -23 -431
-118 -610 -189 -188 -75 -455 -206 -560 -275 -8 -6 -22 -13 -30 -17 -17 -8
-242 -156 -310 -204 -254 -180 -592 -498 -824 -776 -82 -99 -125 -143 -140
-144 -25 -1 -37 -3 -96 -18 -531 -140 -931 -596 -997 -1138 -13 -104 -5 -384
11 -400 8 -9 8818 -5 8826 4 17 17 28 269 17 368 -32 275 -139 526 -313 730
-205 242 -466 392 -799 460 -11 2 -38 28 -60 57 -40 53 -152 185 -209 247
-600 652 -1316 1082 -2132 1280 -115 28 -142 33 -229 47 -22 3 -42 7 -45 9 -3
2 -33 7 -65 10 -33 4 -69 9 -80 11 -11 2 -54 7 -95 10 -41 4 -77 8 -79 10 -3
3 20 14 189 91 383 172 781 411 1067 639 126 100 340 315 424 424 90 116 279
398 279 416 0 2 12 23 27 47 56 88 196 375 263 537 109 261 224 640 255 840 4
25 9 54 11 65 2 11 7 40 10 65 3 25 8 56 10 70 10 50 12 327 3 390 -23 175
-69 294 -143 373 -71 76 -171 107 -281 86z"/>
<path d="M3102 8035 c-18 -8 -48 -30 -67 -49 -90 -93 -66 -252 50 -318 60 -34
148 -32 203 5 64 42 96 99 96 172 0 85 -40 150 -116 189 -34 18 -128 18 -166
1z"/>
<path d="M1915 6758 c-178 -38 -218 -275 -62 -372 116 -72 268 -11 302 121 37
146 -92 282 -240 251z"/>
<path d="M9245 6762 c-144 -25 -219 -172 -153 -300 70 -137 274 -142 352 -9
31 53 37 98 21 160 -12 46 -57 106 -97 128 -24 13 -98 26 -123 21z"/>
<path d="M1162 5225 c-18 -8 -35 -14 -37 -14 -38 -2 -130 -90 -158 -151 -42
-90 -22 -229 42 -296 100 -104 135 -113 476 -114 l272 -1 0 111 0 110 -267 0
-267 0 -27 25 c-35 32 -35 76 0 104 25 20 39 21 273 21 227 0 249 -2 278 -20
77 -47 120 -152 110 -267 -8 -77 -28 -126 -76 -175 -46 -49 -56 -50 -444 -52
l-312 -1 -1 -108 -2 -107 382 0 c377 1 383 1 431 24 86 40 145 115 193 245 34
91 39 272 11 379 -31 120 -107 229 -193 275 -39 21 -53 22 -346 24 -239 1
-312 -2 -338 -12z"/>
<path d="M9242 5133 l3 -108 380 0 c399 -1 412 -2 436 -46 15 -28 -4 -73 -37
-88 -17 -7 -142 -11 -399 -11 -350 0 -375 -1 -376 -17 -1 -21 -1 -185 0 -195
1 -5 171 -8 379 -8 402 0 415 -2 438 -49 15 -30 5 -59 -28 -84 -23 -17 -51
-19 -409 -20 l-383 -2 -1 -108 -1 -107 386 0 c427 1 457 4 540 61 114 77 157
221 105 346 -9 20 -23 45 -31 55 -15 15 -13 22 15 79 63 125 33 250 -84 347
-9 7 -37 23 -63 35 -46 21 -60 22 -460 25 l-413 3 3 -108z"/>
</g>
</svg>
